<?xml version="1.0" encoding="utf-8"?>
<!-- Generator: Adobe Illustrator 19.2.1, SVG Export Plug-In . SVG Version: 6.00 Build 0)  -->
<svg version="1.1" id="Layer_1" xmlns="http://www.w3.org/2000/svg" xmlns:xlink="http://www.w3.org/1999/xlink" x="0px" y="0px"
	 viewBox="0 0 969.8 789.7" style="enable-background:new 0 0 969.8 789.7;" xml:space="preserve">
<style type="text/css">
	.st0{fill:#FDA0EC;}
	.st1{fill:#FC42A0;}
</style>
<g>
	<path class="st0" d="M496.8,789.7c0-2.2,0-3.9,0-5.5c0-64.9,0-129.9,0-194.8c0-57.6,0-115.3,0-172.9c0-8.4,0.3-8.9,8-11.8
		c117.8-44.3,235.5-88.7,353.3-133c35.1-13.2,70.2-26.4,105.4-39.7c1.8-0.7,3.6-1.2,6.2-2.1c0,2.3,0,3.9,0,5.5
		c0.1,122.5,0.1,245.1,0.2,367.6c0,8.4-0.5,9-8.5,12c-112.6,42.4-225.1,84.8-337.7,127.2c-40.4,15.2-80.9,30.4-121.4,45.6
		C500.7,788.5,499,789,496.8,789.7z"/>
	<path class="st0" d="M18.1,210.9c35.5-13.4,70-26.4,105.2-39.6c0.2,2.7,0.6,4.8,0.6,7c0.1,8.5,0.2,17.1,0,25.6
		c-0.4,11.4,4.2,20.2,12.6,27.6c11.9,10.4,26.3,15.2,41.1,19.1c46.9,12.3,93.4,10.7,139.4-4.9c10.2-3.5,19.4-8.6,27.2-16.2
		c7-6.8,10.6-15.1,10.5-24.9c-0.1-18.4-0.3-36.9,0.1-55.3c0.3-13.7-5.1-24.4-16.4-31.6c-8.1-5.2-17.2-8.9-25.9-13.2
		c-1.6-0.8-3.3-1.3-5.7-2.3c21.1-7.9,41.4-15.6,62.4-23.5c0.3,2.2,0.7,3.9,0.7,5.6c0.1,9.3,0.3,18.6,0,27.9
		c-0.3,10.9,4.1,19.4,12.1,26.4c11.8,10.3,26,15.6,41,19.4c46.3,11.8,92.2,10.8,137.7-4.1c10.4-3.4,19.9-8.4,28-15.7
		c8-7.2,12.2-16,11.7-27c-0.4-9.9-0.1-19.8-0.1-30.2c21,8,41.6,15.9,63,24.1c-5.3,2.7-10.1,5-14.8,7.5c-5.4,2.9-10.9,5.6-16,9
		c-9.1,6-14.2,14.7-14.3,25.6c-0.2,20.8-0.1,41.7,0,62.5c0,8.5,3.7,15.6,9.6,21.6c10.7,10.8,24.2,16.2,38.5,20.3
		c47.1,13.5,94.1,13.3,140.6-2.4c10.6-3.6,20.5-9.8,29.9-16c8.3-5.5,12-14.3,11.9-24.4c0-10.6,0-21.2,0-32.6
		c34.5,13.2,68.5,26.2,103.5,39.6c-10.5,4-19.9,7.7-29.4,11.3c-112.1,42-224.2,84.3-336.3,126.5c-31.1,11.7-62.2,23.3-93.2,35
		c-4.6,1.7-8.7,1.1-13-0.6c-58.3-22.4-116.7-44.7-175.1-67c-93.1-35.6-186.3-71.2-279.4-106.8C23.6,213.4,21.4,212.4,18.1,210.9z
		 M603.2,271.4C603.2,271.4,603.3,271.4,603.2,271.4c0.1-9.3-0.2-18.6,0.1-27.9c0.4-11.5-3.9-20.7-12.4-28.1
		c-8.9-7.7-19.1-12.9-30.2-16.3c-42.3-13.3-85.1-14.7-128.3-5.1c-16.4,3.6-32.1,8.7-45.6,19.1c-9.3,7.1-15.1,16.2-15.1,28.3
		c-0.1,20.2-0.1,40.5,0.1,60.7c0.1,8.7,3,16.5,9.8,21.8s13.9,10.5,21.6,14.3c17.1,8.6,35.7,12,54.5,14c30.8,3.4,61.4,2.2,91.5-5.9
		c15.1-4.1,29.8-9.2,41.9-19.8c8.3-7.4,12.7-16.4,12.3-27.7C603,289.7,603.2,280.5,603.2,271.4z"/>
	<path class="st0" d="M483.7,83.8c-21.9-0.2-45.2-2.1-67.2-11c-7.6-3-14.8-7.2-21.6-11.8c-8.2-5.5-8.1-11.9-0.8-18.4
		c9.2-8.2,20.5-12.2,32.1-15.4c28.4-7.8,57.3-8.9,86.5-5.9c18.6,1.9,36.7,5.8,53.3,14.9c3.4,1.9,6.7,4,9.7,6.4
		c7.3,5.6,7.8,12.3,0.5,17.8c-6.6,5-14,9.4-21.7,12.4C532.3,81.2,508.9,83.7,483.7,83.8z"/>
	<path class="st0" d="M734.2,178.7c-25-0.1-48.5-2.1-70.7-11.3c-7.1-2.9-14-6.9-20.3-11.4c-8.5-6-8.1-12.4,0.2-18.8
		c11.7-8.9,25-14,39.2-16.9c39.7-8.3,79.2-8.3,117.9,4.9c7.8,2.7,15.3,6.9,22.3,11.4c9.2,5.9,9.2,12.9,0.8,20
		c-8.6,7.3-19,11.3-29.7,14.4C774,176.7,753.6,178.9,734.2,178.7z"/>
	<path class="st0" d="M230.3,176.4c-21.4-0.8-46.5-3.2-69.6-15.3c-4.4-2.3-8.5-5-12.5-8c-7.5-5.6-7.4-11.9,0.1-17.6
		c11.2-8.4,23.7-14,37.3-17c40.2-8.9,80.3-9.2,119.6,4.1c8.6,2.9,16.7,8,24.5,12.9c7.9,5.1,7.8,11.6,0.5,17.6
		c-12.7,10.5-28,15.3-43.7,18.8C269.4,175.7,251.9,176.7,230.3,176.4z"/>
	<path class="st0" d="M485.3,103.1c33.4-0.9,65.9-5,95.3-21.6c0,11.8,0.6,23.3-0.4,34.7c-0.3,3.5-4.3,7.5-7.6,9.8
		c-17,11.4-36.2,16.7-56.4,18.9c-10.2,1.1-20.5,1.6-31,2.4C485.3,132.1,485.3,118,485.3,103.1z"/>
	<path class="st0" d="M733.7,241.6c0-14.6,0-28.8,0-42.5c16.4-2,32.8-3.4,49-6.1c16.3-2.7,31.7-8.5,46.3-16.6
		c0,12,0.4,23.6-0.3,35.1c-0.1,2.7-3.2,5.6-5.5,7.8c-7.6,6.9-17,10.5-26.6,13.6C776.4,239.7,755.4,241.6,733.7,241.6z"/>
	<path class="st0" d="M239.3,195.8c33.5-1.1,65.8-5.1,96-22c0,4.6,0,8.1,0,11.6c0,6.3,0,12.6,0.1,18.9c0.1,6.2-2.4,10.5-7.8,14
		c-25.9,16.7-54.8,20.5-84.6,21.2c-2.2,0.1-3.7-0.1-3.7-3C239.4,223.1,239.3,209.8,239.3,195.8z"/>
	<path class="st1" d="M603.2,271.4c0,9.1-0.3,18.3,0.1,27.4c0.4,11.4-4,20.4-12.3,27.7c-12.1,10.6-26.7,15.7-41.9,19.8
		c-30.1,8.1-60.6,9.3-91.5,5.9c-18.9-2.1-37.5-5.4-54.5-14c-7.7-3.9-14.8-9-21.6-14.3c-6.8-5.4-9.8-13.2-9.8-21.8
		c-0.1-20.2-0.1-40.5-0.1-60.7c0-12,5.8-21.1,15.1-28.3c13.5-10.4,29.3-15.4,45.6-19.1c43.2-9.6,86-8.2,128.3,5.1
		c11.1,3.5,21.4,8.7,30.2,16.3c8.6,7.4,12.8,16.6,12.4,28.1C603,252.8,603.3,262.1,603.2,271.4C603.3,271.4,603.2,271.4,603.2,271.4
		z M484.4,207.5c-18,0-37.6,1.9-56.7,7.6c-12.1,3.7-23.7,8.5-33.1,17.3c-4.8,4.5-4.8,9.6,0.1,13.9c6.8,5.9,14.3,10.8,23,13.7
		c39.3,13.4,79.1,15.2,119.5,5.8c14.2-3.3,28.2-7.1,40-16.3c8.7-6.8,8.9-14.3-0.2-20.3c-6.9-4.6-14.5-8.5-22.2-11.5
		C532.7,209.5,509.6,207.8,484.4,207.5z M487.8,335.9c17.6-2.4,34.7-4.3,51.6-7.2c11.7-2,22.7-6.4,33-12.5
		c8.7-5.2,12.7-12.5,11.5-22.9c-0.7-6.7-0.3-13.5-0.5-20.2c0-1.2-0.2-2.5-0.3-4c-29.9,16.8-62.3,20.6-95.3,21.8
		C487.8,305.6,487.8,319.9,487.8,335.9z"/>
	<path class="st0" d="M484.4,207.5c25.1,0.2,48.3,1.9,70.3,10.3c7.8,3,15.3,6.9,22.2,11.5c9.1,6,8.9,13.6,0.2,20.3
		c-11.8,9.2-25.8,13-40,16.3c-40.4,9.3-80.2,7.5-119.5-5.8c-8.7-3-16.1-7.8-23-13.7c-5-4.3-5-9.4-0.1-13.9
		c9.4-8.8,21-13.7,33.1-17.3C446.8,209.4,466.4,207.5,484.4,207.5z"/>
	<path class="st0" d="M487.8,335.9c0-16,0-30.3,0-45c33.1-1.2,65.4-5,95.3-21.8c0.1,1.6,0.3,2.8,0.3,4c0.1,6.7-0.3,13.5,0.5,20.2
		c1.1,10.4-2.8,17.7-11.5,22.9c-10.3,6.1-21.3,10.6-33,12.5C522.4,331.6,505.4,333.5,487.8,335.9z"/>
	<polygon class="st1" points="475.2,787.9 0,602.1 0,229.9 475.2,414.9 	"/>
	<path class="st1" d="M353.3,177c0,9.1-0.3,18.3,0.1,27.4c0.4,11.4-4,20.4-12.3,27.7c-12.1,10.6-26.7,15.7-41.9,19.8
		c-30.1,8.1-60.6,9.3-91.5,5.9c-18.9-2.1-37.5-5.4-54.5-14c-7.7-3.9-14.8-9-21.6-14.3c-6.8-5.4-9.8-13.2-9.8-21.8
		c-0.1-20.2-0.1-40.5-0.1-60.7c0-12,5.8-21.1,15.1-28.3c13.5-10.4,29.3-15.4,45.6-19.1c43.2-9.6,86-8.2,128.3,5.1
		c11.1,3.5,21.4,8.7,30.2,16.3c8.6,7.4,12.8,16.6,12.4,28.1C353.1,158.4,353.4,167.7,353.3,177C353.4,177,353.4,177,353.3,177z
		 M234.5,113.2c-18,0-37.6,1.9-56.7,7.6c-12.1,3.7-23.7,8.5-33.1,17.3c-4.8,4.5-4.8,9.6,0.1,13.9c6.8,5.9,14.3,10.8,23,13.7
		c39.3,13.4,79.1,15.2,119.5,5.8c14.2-3.3,28.2-7.1,40-16.3c8.7-6.8,8.9-14.3-0.2-20.3c-6.9-4.6-14.5-8.5-22.2-11.5
		C282.8,115.1,259.7,113.4,234.5,113.2z M237.9,241.6c17.6-2.4,34.7-4.3,51.6-7.2c11.7-2,22.7-6.4,33-12.5
		c8.7-5.2,12.7-12.5,11.5-22.9c-0.7-6.7-0.3-13.5-0.5-20.2c0-1.2-0.2-2.5-0.3-4c-29.9,16.8-62.3,20.6-95.3,21.8
		C237.9,211.2,237.9,225.6,237.9,241.6z"/>
	<path class="st1" d="M600.8,83.6c0,9.1-0.3,18.3,0.1,27.4c0.4,11.4-4,20.4-12.3,27.7c-12.1,10.6-26.7,15.7-41.9,19.8
		c-30.1,8.1-60.6,9.3-91.5,5.9c-18.9-2.1-37.5-5.4-54.5-14c-7.7-3.9-14.8-9-21.6-14.3c-6.8-5.4-9.8-13.2-9.8-21.8
		c-0.1-20.2-0.1-40.5-0.1-60.7c0-12,5.8-21.1,15.1-28.3c13.5-10.4,29.3-15.4,45.6-19.1c43.2-9.6,86-8.2,128.3,5.1
		c11.1,3.5,21.4,8.7,30.2,16.3c8.6,7.4,12.8,16.6,12.4,28.1C600.5,65,600.8,74.3,600.8,83.6L600.8,83.6z M482,19.7
		c-18,0-37.6,1.9-56.7,7.6c-12.1,3.7-23.7,8.5-33.1,17.3c-4.8,4.5-4.8,9.6,0.1,13.9c6.8,5.9,14.3,10.8,23,13.7
		c39.3,13.4,79.1,15.2,119.5,5.8c14.2-3.3,28.2-7.1,40-16.3c8.7-6.8,8.9-14.3-0.2-20.3c-6.9-4.6-14.5-8.5-22.2-11.5
		C530.3,21.6,507.1,19.9,482,19.7z M485.3,148.1c17.6-2.4,34.7-4.3,51.6-7.2c11.7-2,22.7-6.4,33-12.5c8.7-5.2,12.7-12.5,11.5-22.9
		c-0.7-6.7-0.3-13.5-0.5-20.2c0-1.2-0.2-2.5-0.3-4c-29.9,16.8-62.3,20.6-95.3,21.8C485.3,117.8,485.3,132.1,485.3,148.1z"/>
	<path class="st1" d="M849.1,179.7c0,9.1-0.3,18.3,0.1,27.4c0.4,11.4-4,20.4-12.3,27.7c-12.1,10.6-26.7,15.7-41.9,19.8
		c-30.1,8.1-60.6,9.3-91.5,5.9c-18.9-2.1-37.5-5.4-54.5-14c-7.7-3.9-14.8-9-21.6-14.3c-6.8-5.4-9.8-13.2-9.8-21.8
		c-0.1-20.2-0.1-40.5-0.1-60.7c0-12,5.8-21.1,15.1-28.3c13.5-10.4,29.3-15.4,45.6-19.1c43.2-9.6,86-8.2,128.3,5.1
		c11.1,3.5,21.4,8.7,30.2,16.3c8.6,7.4,12.8,16.6,12.4,28.1C848.9,161.1,849.2,170.4,849.1,179.7
		C849.2,179.7,849.1,179.7,849.1,179.7z M730.3,115.8c-18,0-37.6,1.9-56.7,7.6c-12.1,3.7-23.7,8.5-33.1,17.3
		c-4.8,4.5-4.8,9.6,0.1,13.9c6.8,5.9,14.3,10.8,23,13.7c39.3,13.4,79.1,15.2,119.5,5.8c14.2-3.3,28.2-7.1,40-16.3
		c8.7-6.8,8.9-14.3-0.2-20.3c-6.9-4.6-14.5-8.5-22.2-11.5C778.6,117.7,755.5,116,730.3,115.8z M733.7,244.2
		c17.6-2.4,34.7-4.3,51.6-7.2c11.7-2,22.7-6.4,33-12.5c8.7-5.2,12.7-12.5,11.5-22.9c-0.7-6.7-0.3-13.5-0.5-20.2c0-1.2-0.2-2.5-0.3-4
		c-29.9,16.8-62.3,20.6-95.3,21.8C733.7,213.9,733.7,228.2,733.7,244.2z"/>
	<path class="st1" d="M849.4,179.7c0,9.1-0.3,18.3,0.1,27.4c0.4,11.4-4,20.4-12.3,27.7c-12.1,10.6-26.7,15.7-41.9,19.8
		c-30.1,8.1-60.6,9.3-91.5,5.9c-18.9-2.1-37.5-5.4-54.5-14c-7.7-3.9-14.8-9-21.6-14.3c-6.8-5.4-9.8-13.2-9.8-21.8
		c-0.1-20.2-0.1-40.5-0.1-60.7c0-12,5.8-21.1,15.1-28.3c13.5-10.4,29.3-15.4,45.6-19.1c43.2-9.6,86-8.2,128.3,5.1
		c11.1,3.5,21.4,8.7,30.2,16.3c8.6,7.4,12.8,16.6,12.4,28.1C849.2,161.1,849.5,170.4,849.4,179.7
		C849.5,179.7,849.5,179.7,849.4,179.7z M730.6,115.8c-18,0-37.6,1.9-56.7,7.6c-12.1,3.7-23.7,8.5-33.1,17.3
		c-4.8,4.5-4.8,9.6,0.1,13.9c6.8,5.9,14.3,10.8,23,13.7c39.3,13.4,79.1,15.2,119.5,5.8c14.2-3.3,28.2-7.1,40-16.3
		c8.7-6.8,8.9-14.3-0.2-20.3c-6.9-4.6-14.5-8.5-22.2-11.5C778.9,117.7,755.8,116,730.6,115.8z M734,244.2
		c17.6-2.4,34.7-4.3,51.6-7.2c11.7-2,22.7-6.4,33-12.5c8.7-5.2,12.7-12.5,11.5-22.9c-0.7-6.7-0.3-13.5-0.5-20.2c0-1.2-0.2-2.5-0.3-4
		C799.4,194.2,767,198,734,199.2C734,213.9,734,228.2,734,244.2z"/>
	<path class="st0" d="M730.6,115.8c25.1,0.2,48.3,1.9,70.3,10.3c7.8,3,15.3,6.9,22.2,11.5c9.1,6,8.9,13.6,0.2,20.3
		c-11.8,9.2-25.8,13-40,16.3c-40.4,9.3-80.2,7.5-119.5-5.8c-8.7-3-16.1-7.8-23-13.7c-5-4.3-5-9.4-0.1-13.9
		c9.4-8.8,21-13.7,33.1-17.3C693,117.7,712.6,115.8,730.6,115.8z"/>
	<path class="st0" d="M734,244.2c0-16,0-30.3,0-45c33.1-1.2,65.4-5,95.3-21.8c0.1,1.6,0.3,2.8,0.3,4c0.1,6.7-0.3,13.5,0.5,20.2
		c1.1,10.4-2.8,17.7-11.5,22.9c-10.3,6.1-21.3,10.6-33,12.5C768.7,239.9,751.6,241.8,734,244.2z"/>
	<path class="st1" d="M355.1,177c0,9.1-0.3,18.3,0.1,27.4c0.4,11.4-4,20.4-12.3,27.7c-12.1,10.6-26.7,15.7-41.9,19.8
		c-30.1,8.1-60.6,9.3-91.5,5.9c-18.9-2.1-37.5-5.4-54.5-14c-7.7-3.9-14.8-9-21.6-14.3c-6.8-5.4-9.8-13.2-9.8-21.8
		c-0.1-20.2-0.1-40.5-0.1-60.7c0-12,5.8-21.1,15.1-28.3c13.5-10.4,29.3-15.4,45.6-19.1c43.2-9.6,86-8.2,128.3,5.1
		c11.1,3.5,21.4,8.7,30.2,16.3c8.6,7.4,12.8,16.6,12.4,28.1C354.9,158.4,355.2,167.7,355.1,177C355.2,177,355.2,177,355.1,177z
		 M236.3,113.2c-18,0-37.6,1.9-56.7,7.6c-12.1,3.7-23.7,8.5-33.1,17.3c-4.8,4.5-4.8,9.6,0.1,13.9c6.8,5.9,14.3,10.8,23,13.7
		c39.3,13.4,79.1,15.2,119.5,5.8c14.2-3.3,28.2-7.1,40-16.3c8.7-6.8,8.9-14.3-0.2-20.3c-6.9-4.6-14.5-8.5-22.2-11.5
		C284.6,115.1,261.5,113.4,236.3,113.2z M239.7,241.6c17.6-2.4,34.7-4.3,51.6-7.2c11.7-2,22.7-6.4,33-12.5
		c8.7-5.2,12.7-12.5,11.5-22.9c-0.7-6.7-0.3-13.5-0.5-20.2c0-1.2-0.2-2.5-0.3-4c-29.9,16.8-62.3,20.6-95.3,21.8
		C239.7,211.2,239.7,225.6,239.7,241.6z"/>
	<path class="st0" d="M234.5,113.2c25.1,0.2,48.3,1.9,70.3,10.3c7.8,3,15.3,6.9,22.2,11.5c9.1,6,8.9,13.6,0.2,20.3
		c-11.8,9.2-25.8,13-40,16.3c-40.4,9.3-80.2,7.5-119.5-5.8c-8.7-3-16.1-7.8-23-13.7c-5-4.3-5-9.4-0.1-13.9
		c9.4-8.8,21-13.7,33.1-17.3C196.9,115,216.5,113.2,234.5,113.2z"/>
	<path class="st0" d="M237.9,241.6c0-16,0-30.3,0-45c33.1-1.2,65.4-5,95.3-21.8c0.1,1.6,0.3,2.8,0.3,4c0.1,6.7-0.3,13.5,0.5,20.2
		c1.1,10.4-2.8,17.7-11.5,22.9c-10.3,6.1-21.3,10.6-33,12.5C272.6,237.2,255.5,239.2,237.9,241.6z"/>
	<path class="st1" d="M600.8,83.6c0,9.1-0.3,18.3,0.1,27.4c0.4,11.4-4,20.4-12.3,27.7c-12.1,10.6-26.7,15.7-41.9,19.8
		c-30.1,8.1-60.6,9.3-91.5,5.9c-18.9-2.1-37.5-5.4-54.5-14c-7.7-3.9-14.8-9-21.6-14.3c-6.8-5.4-9.8-13.2-9.8-21.8
		c-0.1-20.2-0.1-40.5-0.1-60.7c0-12,5.8-21.1,15.1-28.3c13.5-10.4,29.3-15.4,45.6-19.1c43.2-9.6,86-8.2,128.3,5.1
		c11.1,3.5,21.4,8.7,30.2,16.3c8.6,7.4,12.8,16.6,12.4,28.1C600.5,65,600.8,74.3,600.8,83.6L600.8,83.6z M482,19.7
		c-18,0-37.6,1.9-56.7,7.6c-12.1,3.7-23.7,8.5-33.1,17.3c-4.8,4.5-4.8,9.6,0.1,13.9c6.8,5.9,14.3,10.8,23,13.7
		c39.3,13.4,79.1,15.2,119.5,5.8c14.2-3.3,28.2-7.1,40-16.3c8.7-6.8,8.9-14.3-0.2-20.3c-6.9-4.6-14.5-8.5-22.2-11.5
		C530.3,21.6,507.1,19.9,482,19.7z M485.3,148.1c17.6-2.4,34.7-4.3,51.6-7.2c11.7-2,22.7-6.4,33-12.5c8.7-5.2,12.7-12.5,11.5-22.9
		c-0.7-6.7-0.3-13.5-0.5-20.2c0-1.2-0.2-2.5-0.3-4c-29.9,16.8-62.3,20.6-95.3,21.8C485.3,117.8,485.3,132.1,485.3,148.1z"/>
	<path class="st0" d="M482,19.7c25.1,0.2,48.3,1.9,70.3,10.3c7.8,3,15.3,6.9,22.2,11.5c9.1,6,8.9,13.6,0.2,20.3
		c-11.8,9.2-25.8,13-40,16.3c-40.4,9.3-80.2,7.5-119.5-5.8c-8.7-3-16.1-7.8-23-13.7c-5-4.3-5-9.4-0.1-13.9
		c9.4-8.8,21-13.7,33.1-17.3C444.3,21.6,464,19.7,482,19.7z"/>
	<path class="st0" d="M485.3,148.1c0-16,0-30.3,0-45c33.1-1.2,65.4-5,95.3-21.8c0.1,1.6,0.3,2.8,0.3,4c0.1,6.7-0.3,13.5,0.5,20.2
		c1.1,10.4-2.8,17.7-11.5,22.9c-10.3,6.1-21.3,10.6-33,12.5C520,143.8,502.9,145.7,485.3,148.1z"/>
</g>
</svg>
