<?xml version="1.0" encoding="UTF-8"?>
<svg width="50px" height="50px" viewBox="0 0 50 50" version="1.1" xmlns="http://www.w3.org/2000/svg" xmlns:xlink="http://www.w3.org/1999/xlink">
    <!-- Generator: Sketch 42 (36781) - http://www.bohemiancoding.com/sketch -->
    <title>Group 40 Copy 4</title>
    <desc>Created with Sketch.</desc>
    <defs></defs>
    <g id="Page-1" stroke="none" stroke-width="1" fill="none" fill-rule="evenodd">
        <g id="Group-40-Copy-4" transform="translate(0.125969, 1.034063)">
            <g id="Group-Copy-10" transform="translate(0.880889, 0.129198)">
                <ellipse id="XMLID_4518_" stroke="#5596E6" stroke-width="1.9998" cx="39.7" cy="14.3" rx="3.9" ry="3.9"></ellipse>
                <circle id="XMLID_4516_" stroke="#5596E6" stroke-width="1.9998" cx="39.7" cy="34.7" r="3.9"></circle>
                <ellipse id="XMLID_4515_" stroke="#5596E6" stroke-width="1.9998" cx="4.1" cy="14.3" rx="3.9" ry="3.9"></ellipse>
                <ellipse id="XMLID_4514_" stroke="#5596E6" stroke-width="1.9998" cx="4.1" cy="34.7" rx="3.9" ry="3.9"></ellipse>
                <ellipse id="XMLID_4512_" stroke="#5596E6" stroke-width="1.9998" cx="21.9" cy="4" rx="3.9" ry="3.9"></ellipse>
                <ellipse id="XMLID_4508_" fill="#5596E6" fill-rule="nonzero" cx="30.8" cy="39.9" rx="1.8" ry="1.8"></ellipse>
                <ellipse id="XMLID_4503_" fill="#5596E6" fill-rule="nonzero" cx="4.1" cy="24.5" rx="1.8" ry="1.8"></ellipse>
                <ellipse id="XMLID_4502_" fill="#5596E6" fill-rule="nonzero" cx="39.7" cy="24.5" rx="1.8" ry="1.8"></ellipse>
                <ellipse id="XMLID_4501_" fill="#5596E6" fill-rule="nonzero" cx="13" cy="39.9" rx="1.8" ry="1.8"></ellipse>
                <ellipse id="XMLID_4500_" fill="#5596E6" fill-rule="nonzero" cx="30.8" cy="9.1" rx="1.8" ry="1.8"></ellipse>
                <ellipse id="XMLID_4499_" fill="#5596E6" fill-rule="nonzero" cx="13" cy="9.1" rx="1.8" ry="1.8"></ellipse>
            </g>
            <g id="Group" transform="translate(12.901750, 13.000000)" stroke="#5596E6" stroke-width="1.9998" stroke-linecap="round">
                <path d="M10.0413436,0.19561059 C4.49904357,0.19561059 0.0652035299,4.69465416 0.0652035299,10.2369542 C0.0652035299,12.9755025 1.43447766,15.6488472 3.39058356,17.6701566 C5.6727071,20.0826872 6.19433534,21.7127755 6.19433534,23.6036778 L6.19433534,24.1253061 L13.8231483,24.1253061 L13.8231483,23.6036778 C13.8231483,21.7127755 14.3447766,20.0826872 16.6269001,17.6701566 C18.583006,15.6488472 19.9522802,13.040706 19.9522802,10.2369542 C20.0174837,4.69465416 15.5184401,0.19561059 10.0413436,0.19561059" id="XMLID_722_" stroke-linejoin="round"></path>
                <path d="M6.19433534,26.7334473 L13.8231483,26.7334473" id="XMLID_721_"></path>
                <path d="M6.19433534,29.406792 L13.8231483,29.406792" id="XMLID_720_"></path>
                <path d="M7.69401653,32.0801367 L12.3234672,32.0801367" id="XMLID_719_"></path>
            </g>
            <g id="Group-33-Copy" transform="translate(24.880889, 24.629198)">
                <ellipse id="Oval-5" fill="#325C80" cx="12.1162811" cy="12.1162811" rx="12.1162811" ry="12.1162811"></ellipse>
                <g id="Page-1-Copy" transform="translate(3.461795, 3.461795)" fill="#FFFFFF">
                    <path d="M14.9265122,6.73136641 L13.1336492,8.5249286 C12.1176469,9.54093089 10.5037906,9.57589312 9.43184874,8.65848431 L12.2456087,5.84402511 L11.5037103,5.10282592 L8.68995031,7.91658587 C7.7725415,6.84464402 7.80890221,5.23078767 8.82280677,4.21548463 L10.6177675,2.42192243 C11.1505918,1.88909811 11.8498363,1.62268595 12.5490808,1.62268595 C13.2497238,1.62268595 13.9489683,1.88909811 14.4810934,2.42192243 L14.9265122,2.86734119 C15.9914616,3.9322906 15.9914616,5.66641701 14.9265122,6.73136641 M8.52702634,13.1308523 L6.73346414,14.9244144 C5.66851474,15.9893639 3.93368908,15.9893639 2.86873968,14.9244144 L2.42332092,14.4796949 C1.35977001,13.4147455 1.35977001,11.6799199 2.42332092,10.6149705 L4.2182816,8.82140828 C4.75040668,8.2892832 5.4496512,8.02287104 6.14889572,8.02287104 C6.7831105,8.02287104 7.40963359,8.25292248 7.91938285,8.68855182 L5.10422441,11.5023118 L5.84612285,12.2442102 L8.66058204,9.42975101 C9.57869009,10.5023921 9.54163013,12.1169477 8.52702634,13.1308523 M15.6684106,2.12544276 L15.2229919,1.680024 C14.5111609,0.96889232 13.5622861,0.576616145 12.5504793,0.576616145 C11.5365747,0.576616145 10.5876999,0.96889232 9.87586902,1.680024 L8.08160758,3.47428544 C7.36977666,4.18541711 6.97819972,5.13569041 6.97819972,6.14819648 C6.97819972,6.48173612 7.03553778,6.80338859 7.11804863,7.11665014 C6.80478708,7.03413929 6.48383385,6.97680124 6.15029421,6.97680124 C5.1370889,6.97680124 4.18821409,7.36837817 3.47638317,8.08020909 L1.68212173,9.87307204 C0.208114283,11.3477787 0.208114283,13.7468867 1.68212173,15.2215934 L2.12684125,15.6656136 C2.83867217,16.3774446 3.78894547,16.7690215 4.80145153,16.7690215 C5.81325835,16.7690215 6.76353166,16.3774446 7.47536258,15.6656136 L9.26822553,13.8727507 C9.98005645,13.1609198 10.3716334,12.2113457 10.3716334,11.1988396 C10.3716334,10.8653 10.3149946,10.5436475 10.2324837,10.2310852 C10.5457453,10.3128968 10.8673977,10.3702349 11.2009374,10.3702349 C12.2127442,10.3702349 13.1637167,9.97865796 13.8748484,9.26682704 L15.6684106,7.47326484 C16.3795423,6.76143392 16.7718185,5.81185987 16.7718185,4.79865456 C16.7718185,3.78684774 16.3795423,2.83727368 15.6684106,2.12544276" id="Fill-1"></path>
                </g>
            </g>
        </g>
    </g>
</svg>
